<svg width="17" height="22" viewBox="0 0 17 22" fill="none" xmlns="http://www.w3.org/2000/svg">
<path id="Addressesa" d="M10.9904 9.85558C11.3253 9.39454 11.5262 8.84987 11.5709 8.28178C11.6155 7.71368 11.5022 7.1443 11.2435 6.63658C10.9848 6.12885 10.5907 5.70256 10.1048 5.40482C9.61896 5.10709 9.06021 4.94951 8.49037 4.94951C7.92052 4.94951 7.36178 5.10709 6.8759 5.40482C6.39002 5.70256 5.99594 6.12885 5.73721 6.63658C5.47849 7.1443 5.3652 7.71368 5.40988 8.28178C5.45456 8.84987 5.65546 9.39454 5.99037 9.85558C5.56554 10.1263 5.18732 10.464 4.87037 10.8556C4.78764 10.9626 4.72679 11.0849 4.69132 11.2154C4.65584 11.346 4.64642 11.4822 4.6636 11.6164C4.68078 11.7506 4.72422 11.8801 4.79144 11.9974C4.85866 12.1148 4.94834 12.2178 5.05537 12.3006C5.1624 12.3833 5.28467 12.4442 5.41521 12.4796C5.54575 12.5151 5.682 12.5245 5.81618 12.5073C5.95037 12.4902 6.07985 12.4467 6.19724 12.3795C6.31463 12.3123 6.41764 12.2226 6.50037 12.1156C6.74459 11.8052 7.05584 11.554 7.41084 11.3808C7.76584 11.2076 8.15539 11.117 8.55037 11.1156C8.94535 11.117 9.3349 11.2076 9.6899 11.3808C10.0449 11.554 10.3561 11.8052 10.6004 12.1156C10.6945 12.2316 10.8134 12.3251 10.9484 12.3891C11.0834 12.4531 11.231 12.4861 11.3804 12.4856C11.5678 12.4847 11.7513 12.4312 11.9098 12.3311C12.0683 12.231 12.1955 12.0883 12.2768 11.9194C12.3581 11.7505 12.3903 11.5621 12.3697 11.3758C12.3491 11.1895 12.2766 11.0127 12.1604 10.8656C11.8292 10.4663 11.4338 10.1249 10.9904 9.85558ZM8.50037 9.12558C8.28652 9.12543 8.07744 9.06239 7.89916 8.94429C7.72088 8.8262 7.58128 8.65827 7.49773 8.46142C7.41418 8.26457 7.39039 8.04749 7.42931 7.83721C7.46822 7.62694 7.56813 7.43275 7.7166 7.27884C7.86506 7.12493 8.05552 7.01809 8.26426 6.97162C8.47299 6.92516 8.69079 6.94112 8.89052 7.01752C9.09026 7.09392 9.2631 7.22738 9.38754 7.40129C9.51199 7.5752 9.58252 7.78188 9.59037 7.99558C9.59575 8.14205 9.57153 8.2881 9.51917 8.425C9.4668 8.56189 9.38737 8.68682 9.28561 8.79232C9.18385 8.89781 9.06187 8.98169 8.92694 9.03895C8.79202 9.09621 8.64694 9.12568 8.50037 9.12558ZM16.9604 8.62558C16.82 7.16449 16.3036 5.76466 15.4616 4.5624C14.6195 3.36013 13.4805 2.39641 12.1554 1.76507C10.8303 1.13373 9.36425 0.856299 7.90008 0.959782C6.43592 1.06327 5.0235 1.54414 3.80037 2.35558C2.74957 3.05822 1.86742 3.98488 1.21731 5.06897C0.567203 6.15306 0.165264 7.36768 0.0403693 8.62558C-0.0821483 9.87524 0.0750432 11.1365 0.50054 12.3179C0.926036 13.4992 1.60917 14.571 2.50037 15.4556L7.80037 20.7656C7.89333 20.8593 8.00393 20.9337 8.12579 20.9845C8.24765 21.0352 8.37836 21.0614 8.51037 21.0614C8.64238 21.0614 8.77309 21.0352 8.89495 20.9845C9.01681 20.9337 9.12741 20.8593 9.22037 20.7656L14.5004 15.4556C15.3916 14.571 16.0747 13.4992 16.5002 12.3179C16.9257 11.1365 17.0829 9.87524 16.9604 8.62558ZM13.1004 14.0456L8.50037 18.6456L3.90037 14.0456C3.22246 13.3676 2.70317 12.5479 2.37984 11.6453C2.0565 10.7428 1.93715 9.77977 2.03037 8.82558C2.12419 7.85668 2.43213 6.92074 2.93194 6.08542C3.43175 5.2501 4.11093 4.53629 4.92037 3.99558C5.98131 3.29081 7.22668 2.91487 8.50037 2.91487C9.77406 2.91487 11.0194 3.29081 12.0804 3.99558C12.8874 4.5342 13.565 5.24486 14.0647 6.07652C14.5644 6.90817 14.8737 7.84018 14.9704 8.80558C15.0666 9.76301 14.9488 10.7299 14.6254 11.6361C14.3019 12.5424 13.781 13.3654 13.1004 14.0456Z" fill="#080E11"/>
</svg>
