<svg width="32" height="32" viewBox="0 0 32 32" fill="none" xmlns="http://www.w3.org/2000/svg">
<g id="fluent:gift-card-20-regular">
<path id="Vector" d="M3.19995 10.8C3.19995 9.63304 3.66352 8.51388 4.48868 7.68872C5.31384 6.86356 6.433 6.39999 7.59995 6.39999H24.4C25.5669 6.39999 26.6861 6.86356 27.5112 7.68872C28.3364 8.51388 28.7999 9.63304 28.7999 10.8V21.2C28.7999 22.3669 28.3364 23.4861 27.5112 24.3113C26.6861 25.1364 25.5669 25.6 24.4 25.6H7.59995C6.433 25.6 5.31384 25.1364 4.48868 24.3113C3.66352 23.4861 3.19995 22.3669 3.19995 21.2V10.8ZM4.79995 16V21.2C4.79995 22.7456 6.05435 24 7.59995 24H11.2V17.1312L8.56635 19.7664C8.41613 19.9166 8.21239 20.001 7.99995 20.001C7.78751 20.001 7.58377 19.9166 7.43355 19.7664C7.28333 19.6162 7.19894 19.4124 7.19894 19.2C7.19894 18.9876 7.28333 18.7838 7.43355 18.6336L10.0688 16H4.79995ZM6.82875 14.4C6.4766 13.7899 6.33557 13.0808 6.42753 12.3824C6.5195 11.684 6.83932 11.0355 7.3374 10.5374C7.83548 10.0394 8.48399 9.71954 9.18235 9.62758C9.88071 9.53561 10.5899 9.67664 11.2 10.0288V7.99999H7.59995C6.85734 7.99999 6.14515 8.29499 5.62005 8.8201C5.09495 9.3452 4.79995 10.0574 4.79995 10.8V14.4H6.82875ZM9.59995 14.4H11.2V12.8C11.2 12.4835 11.1061 12.1742 10.9303 11.9111C10.7545 11.648 10.5046 11.4429 10.2122 11.3218C9.91988 11.2007 9.59818 11.169 9.28781 11.2307C8.97744 11.2925 8.69234 11.4449 8.46858 11.6686C8.24482 11.8924 8.09243 12.1775 8.03069 12.4878C7.96896 12.7982 8.00064 13.1199 8.12174 13.4123C8.24284 13.7046 8.44792 13.9545 8.71104 14.1303C8.97416 14.3062 9.2835 14.4 9.59995 14.4ZM12.8 12.8V14.4H14.4C14.7164 14.4 15.0257 14.3062 15.2889 14.1303C15.552 13.9545 15.7571 13.7046 15.8782 13.4123C15.9993 13.1199 16.0309 12.7982 15.9692 12.4878C15.9075 12.1775 15.7551 11.8924 15.5313 11.6686C15.3076 11.4449 15.0225 11.2925 14.7121 11.2307C14.4017 11.169 14.08 11.2007 13.7877 11.3218C13.4953 11.4429 13.2454 11.648 13.0696 11.9111C12.8938 12.1742 12.8 12.4835 12.8 12.8ZM17.1712 14.4H27.1999V10.8C27.1999 10.0574 26.9049 9.3452 26.3798 8.8201C25.8547 8.29499 25.1426 7.99999 24.4 7.99999H12.8V10.0288C13.41 9.67664 14.1192 9.53561 14.8176 9.62758C15.5159 9.71954 16.1644 10.0394 16.6625 10.5374C17.1606 11.0355 17.4804 11.684 17.5724 12.3824C17.6643 13.0808 17.5233 13.7899 17.1712 14.4ZM13.9312 16L16.5664 18.6336C16.7166 18.7838 16.801 18.9876 16.801 19.2C16.801 19.4124 16.7166 19.6162 16.5664 19.7664C16.4161 19.9166 16.2124 20.001 16 20.001C15.7875 20.001 15.5838 19.9166 15.4335 19.7664L12.8 17.1312V24H24.4C25.1426 24 25.8547 23.705 26.3798 23.1799C26.9049 22.6548 27.1999 21.9426 27.1999 21.2V16H13.9312Z" fill="#080E11"/>
</g>
</svg>
