<svg width="22" height="22" viewBox="0 0 22 22" fill="none" xmlns="http://www.w3.org/2000/svg">
<g id="carbon:help">
<path id="Vector" d="M11 1.375C9.09636 1.375 7.23546 1.9395 5.65264 2.99711C4.06982 4.05471 2.83616 5.55793 2.10766 7.31667C1.37917 9.07541 1.18856 11.0107 1.55995 12.8777C1.93133 14.7448 2.84802 16.4598 4.1941 17.8059C5.54018 19.152 7.25519 20.0687 9.12226 20.4401C10.9893 20.8114 12.9246 20.6208 14.6833 19.8923C16.4421 19.1638 17.9453 17.9302 19.0029 16.3474C20.0605 14.7645 20.625 12.9036 20.625 11C20.625 8.44729 19.6109 5.99913 17.8059 4.1941C16.0009 2.38906 13.5527 1.375 11 1.375ZM11 19.25C9.36831 19.25 7.77326 18.7661 6.41655 17.8596C5.05984 16.9531 4.00242 15.6646 3.378 14.1571C2.75358 12.6496 2.5902 10.9908 2.90853 9.3905C3.22685 7.79016 4.01259 6.32015 5.16637 5.16637C6.32016 4.01259 7.79017 3.22685 9.39051 2.90852C10.9909 2.59019 12.6497 2.75357 14.1571 3.37799C15.6646 4.00242 16.9531 5.05984 17.8596 6.41655C18.7661 7.77325 19.25 9.3683 19.25 11C19.25 13.188 18.3808 15.2865 16.8336 16.8336C15.2865 18.3808 13.188 19.25 11 19.25Z" fill="#080E11"/>
<path id="Vector_2" d="M11 17.1875C11.5695 17.1875 12.0312 16.7258 12.0312 16.1562C12.0312 15.5867 11.5695 15.125 11 15.125C10.4305 15.125 9.96875 15.5867 9.96875 16.1562C9.96875 16.7258 10.4305 17.1875 11 17.1875Z" fill="#080E11"/>
<path id="Vector_3" d="M11.6875 5.5H10.6563C10.2497 5.49909 9.84702 5.5785 9.47126 5.73365C9.0955 5.88881 8.75409 6.11666 8.46662 6.40412C8.17916 6.69158 7.95131 7.03299 7.79616 7.40875C7.64101 7.78451 7.5616 8.18722 7.56251 8.59375V8.9375H8.93751V8.59375C8.93751 8.13791 9.11859 7.70074 9.44092 7.37841C9.76325 7.05608 10.2004 6.875 10.6563 6.875H11.6875C12.1433 6.875 12.5805 7.05608 12.9028 7.37841C13.2252 7.70074 13.4063 8.13791 13.4063 8.59375C13.4063 9.04959 13.2252 9.48676 12.9028 9.80909C12.5805 10.1314 12.1433 10.3125 11.6875 10.3125H10.3125V13.4062H11.6875V11.6875C12.508 11.6875 13.2949 11.3616 13.8751 10.7814C14.4553 10.2012 14.7813 9.41426 14.7813 8.59375C14.7813 7.77324 14.4553 6.98633 13.8751 6.40614C13.2949 5.82595 12.508 5.5 11.6875 5.5Z" fill="#080E11"/>
</g>
</svg>
