<svg width="16" height="16" viewBox="0 0 16 16" fill="none" xmlns="http://www.w3.org/2000/svg">
<g id="ic:round-log-out">
<path id="Vector" d="M4.00008 1.33333H10.0001C10.3537 1.33333 10.6928 1.4738 10.9429 1.72385C11.1929 1.9739 11.3334 2.31304 11.3334 2.66666V3.33333C11.3334 3.51014 11.2632 3.67971 11.1382 3.80473C11.0131 3.92976 10.8436 3.99999 10.6667 3.99999C10.4899 3.99999 10.3204 3.92976 10.1953 3.80473C10.0703 3.67971 10.0001 3.51014 10.0001 3.33333V2.66666H4.00008V13.3333H10.0001V12.6667C10.0001 12.4899 10.0703 12.3203 10.1953 12.1953C10.3204 12.0702 10.4899 12 10.6667 12C10.8436 12 11.0131 12.0702 11.1382 12.1953C11.2632 12.3203 11.3334 12.4899 11.3334 12.6667V13.3333C11.3334 13.6869 11.1929 14.0261 10.9429 14.2761C10.6928 14.5262 10.3537 14.6667 10.0001 14.6667H4.00008C3.64646 14.6667 3.30732 14.5262 3.05727 14.2761C2.80722 14.0261 2.66675 13.6869 2.66675 13.3333V2.66666C2.66675 2.31304 2.80722 1.9739 3.05727 1.72385C3.30732 1.4738 3.64646 1.33333 4.00008 1.33333Z" fill="#080E11"/>
<path id="Vector_2" d="M11.1967 10.8633C11.4567 11.1233 11.8767 11.1233 12.1367 10.8633L14.5287 8.47134C14.6536 8.34632 14.7239 8.17678 14.7239 8.00001C14.7239 7.82323 14.6536 7.65369 14.5287 7.52867L12.1367 5.13667C12.0099 5.02214 11.8441 4.96067 11.6733 4.96498C11.5025 4.96929 11.3399 5.03905 11.2192 5.15983C11.0984 5.28062 11.0286 5.4432 11.0243 5.61396C11.02 5.78472 11.0815 5.95061 11.196 6.07734L12.4467 7.33334H6.66667C6.48986 7.33334 6.32029 7.40358 6.19526 7.5286C6.07024 7.65363 6 7.8232 6 8.00001C6 8.17682 6.07024 8.34639 6.19526 8.47141C6.32029 8.59644 6.48986 8.66667 6.66667 8.66667H12.4467L11.196 9.92267C11.0716 10.0476 11.0017 10.2168 11.0019 10.3931C11.002 10.5695 11.072 10.7386 11.1967 10.8633Z" fill="#080E11"/>
</g>
</svg>
