<svg width="18" height="18" viewBox="0 0 18 18" fill="none" xmlns="http://www.w3.org/2000/svg">
<g id="iconoir:privacy-policy">
<g id="Group">
<path id="Vector" d="M15 9V4.31175C15 4.25255 14.9884 4.19392 14.9658 4.13922C14.9431 4.08453 14.9099 4.03484 14.868 3.993L12.507 1.632C12.4227 1.54758 12.3083 1.50011 12.189 1.5H3.45C3.33065 1.5 3.21619 1.54741 3.1318 1.6318C3.04741 1.71619 3 1.83065 3 1.95V16.05C3 16.1693 3.04741 16.2838 3.1318 16.3682C3.21619 16.4526 3.33065 16.5 3.45 16.5H9.75M6 7.5H12M6 4.5H9M6 10.5H8.25" stroke="#080E11" stroke-width="1.5" stroke-linecap="round" stroke-linejoin="round"/>
<path id="Vector_2" d="M12 1.5V4.05C12 4.16935 12.0474 4.28381 12.1318 4.3682C12.2162 4.45259 12.3307 4.5 12.45 4.5H15M14.994 11.3438L16.911 11.8305C17.1105 11.8815 17.2507 12.063 17.2447 12.2685C17.1157 16.587 14.625 17.25 14.625 17.25C14.625 17.25 12.1342 16.587 12.0052 12.2685C12.0029 12.1685 12.0347 12.0706 12.0954 11.991C12.156 11.9114 12.2419 11.8548 12.339 11.8305L14.256 11.3438C14.4982 11.2822 14.7518 11.2822 14.994 11.3438Z" stroke="#080E11" stroke-width="1.5" stroke-linecap="round" stroke-linejoin="round"/>
</g>
</g>
</svg>
