<svg width="18" height="18" viewBox="0 0 18 18" fill="none" xmlns="http://www.w3.org/2000/svg">
<path id="Vector" d="M16.5012 8.99876C16.5014 7.53936 16.0757 6.11161 15.2765 4.89051C14.4773 3.66941 13.3391 2.70802 12.0016 2.12417C10.6641 1.54033 9.18525 1.3594 7.74641 1.60356C6.30757 1.84773 4.97123 2.50637 3.90118 3.49877H5.25117C5.45009 3.49877 5.64085 3.57778 5.7815 3.71844C5.92216 3.85909 6.00117 4.04985 6.00117 4.24876C6.00117 4.44768 5.92216 4.63844 5.7815 4.7791C5.64085 4.91975 5.45009 4.99876 5.25117 4.99876H2.25117C2.05226 4.99876 1.8615 4.91975 1.72084 4.7791C1.58019 4.63844 1.50118 4.44768 1.50118 4.24876V1.24877C1.50118 1.04985 1.58019 0.859087 1.72084 0.718435C1.8615 0.577783 2.05226 0.498765 2.25117 0.498765C2.45009 0.498765 2.64085 0.577783 2.78151 0.718435C2.92216 0.859087 3.00117 1.04985 3.00117 1.24877V2.29077C4.5816 0.87768 6.61013 0.0678699 8.72921 0.00407812C10.8483 -0.0597136 12.9219 0.626609 14.5844 1.94207C16.247 3.25753 17.3918 5.11767 17.8171 7.19461C18.2424 9.27156 17.9208 11.432 16.9091 13.295C15.8973 15.1581 14.2604 16.6041 12.2868 17.3784C10.3132 18.1526 8.12961 18.2053 6.12098 17.5271C4.11234 16.8489 2.40759 15.4834 1.30723 13.6713C0.20686 11.8592 -0.218482 9.71679 0.106175 7.62177C0.136286 7.44514 0.228713 7.28517 0.366686 7.17086C0.504658 7.05656 0.679035 6.9955 0.858175 6.99876C1.31818 6.99876 1.64917 7.43677 1.58217 7.89077C1.43107 8.91061 1.49185 9.95066 1.76072 10.946C2.02959 11.9413 2.50078 12.8705 3.14486 13.6755C3.78895 14.4805 4.59209 15.1441 5.50414 15.6248C6.41619 16.1055 7.41755 16.3931 8.4457 16.4694C9.47385 16.5458 10.5067 16.4093 11.4798 16.0686C12.4528 15.7279 13.3452 15.1902 14.1011 14.4892C14.857 13.7881 15.4603 12.9387 15.8733 11.9941C16.2862 11.0494 16.5 10.0297 16.5012 8.99876ZM9.50117 4.74876C9.50117 4.54985 9.42216 4.35909 9.2815 4.21843C9.14085 4.07778 8.95009 3.99877 8.75117 3.99877C8.55226 3.99877 8.3615 4.07778 8.22085 4.21843C8.08019 4.35909 8.00117 4.54985 8.00117 4.74876V9.24876C8.00117 9.66276 8.33718 9.99876 8.75117 9.99876H11.2512C11.4501 9.99876 11.6409 9.91975 11.7815 9.77909C11.9222 9.63844 12.0012 9.44768 12.0012 9.24876C12.0012 9.04985 11.9222 8.85909 11.7815 8.71844C11.6409 8.57778 11.4501 8.49876 11.2512 8.49876H9.50117V4.74876Z" fill="#080E11"/>
</svg>
