<svg width="22" height="24" viewBox="0 0 22 24" fill="none" xmlns="http://www.w3.org/2000/svg">
<path id="Vector" d="M8.25 17.25C8.25 16.7344 8.16048 16.25 7.98145 15.7969C7.80241 15.3438 7.55534 14.9492 7.24023 14.6133C6.92513 14.2773 6.5599 14.0078 6.14453 13.8047C5.72917 13.6016 5.28516 13.5 4.8125 13.5C4.33984 13.5 3.89583 13.5977 3.48047 13.793C3.0651 13.9883 2.69987 14.2578 2.38477 14.6016C2.06966 14.9453 1.82259 15.3438 1.64355 15.7969C1.46452 16.25 1.375 16.7344 1.375 17.25V18H0V17.25C0 16.7578 0.0572917 16.2852 0.171875 15.832C0.286458 15.3789 0.458333 14.9492 0.6875 14.543C0.916667 14.1367 1.1888 13.7695 1.50391 13.4414C1.81901 13.1133 2.17708 12.832 2.57812 12.5977C2.19141 12.2383 1.89421 11.8125 1.68652 11.3203C1.47884 10.8281 1.375 10.3047 1.375 9.75C1.375 9.23438 1.46452 8.75 1.64355 8.29688C1.82259 7.84375 2.06608 7.44922 2.37402 7.11328C2.68197 6.77734 3.0472 6.50781 3.46973 6.30469C3.89225 6.10156 4.33984 6 4.8125 6C5.28516 6 5.72917 6.09766 6.14453 6.29297C6.5599 6.48828 6.92155 6.75781 7.22949 7.10156C7.53744 7.44531 7.78451 7.84375 7.9707 8.29688C8.1569 8.75 8.25 9.23438 8.25 9.75C8.25 10.2969 8.14616 10.8164 7.93848 11.3086C7.73079 11.8008 7.43359 12.2305 7.04688 12.5977C7.44076 12.8242 7.79525 13.1016 8.11035 13.4297C8.42546 13.7578 8.69759 14.125 8.92676 14.5312C9.15592 14.9375 9.3278 15.3672 9.44238 15.8203C9.55697 16.2734 9.61784 16.75 9.625 17.25V18H8.25V17.25ZM2.75 9.75C2.75 10.0625 2.80371 10.3555 2.91113 10.6289C3.01855 10.9023 3.16536 11.1406 3.35156 11.3438C3.53776 11.5469 3.75618 11.707 4.00684 11.8242C4.25749 11.9414 4.52604 12 4.8125 12C5.09896 12 5.36751 11.9414 5.61816 11.8242C5.86881 11.707 6.08724 11.5469 6.27344 11.3438C6.45964 11.1406 6.60645 10.9023 6.71387 10.6289C6.82129 10.3555 6.875 10.0625 6.875 9.75C6.875 9.4375 6.82129 9.14453 6.71387 8.87109C6.60645 8.59766 6.45964 8.35938 6.27344 8.15625C6.08724 7.95312 5.86881 7.79297 5.61816 7.67578C5.36751 7.55859 5.09896 7.5 4.8125 7.5C4.52604 7.5 4.25749 7.55859 4.00684 7.67578C3.75618 7.79297 3.53776 7.95312 3.35156 8.15625C3.16536 8.35938 3.01855 8.59766 2.91113 8.87109C2.80371 9.14453 2.75 9.4375 2.75 9.75ZM19.4219 12.5977C19.8158 12.8242 20.1702 13.1016 20.4854 13.4297C20.8005 13.7578 21.0726 14.125 21.3018 14.5312C21.5309 14.9375 21.7028 15.3672 21.8174 15.8203C21.932 16.2734 21.9928 16.75 22 17.25V18H20.625V17.25C20.625 16.7344 20.5355 16.25 20.3564 15.7969C20.1774 15.3438 19.9303 14.9492 19.6152 14.6133C19.3001 14.2773 18.9349 14.0078 18.5195 13.8047C18.1042 13.6016 17.6602 13.5 17.1875 13.5C16.7148 13.5 16.2708 13.5977 15.8555 13.793C15.4401 13.9883 15.0749 14.2578 14.7598 14.6016C14.4447 14.9453 14.1976 15.3438 14.0186 15.7969C13.8395 16.25 13.75 16.7344 13.75 17.25V18H12.375V17.25C12.375 16.7578 12.4323 16.2852 12.5469 15.832C12.6615 15.3789 12.8333 14.9492 13.0625 14.543C13.2917 14.1367 13.5638 13.7695 13.8789 13.4414C14.194 13.1133 14.5521 12.832 14.9531 12.5977C14.5664 12.2383 14.2692 11.8125 14.0615 11.3203C13.8538 10.8281 13.75 10.3047 13.75 9.75C13.75 9.23438 13.8395 8.75 14.0186 8.29688C14.1976 7.84375 14.4411 7.44922 14.749 7.11328C15.057 6.77734 15.4222 6.50781 15.8447 6.30469C16.2673 6.10156 16.7148 6 17.1875 6C17.6602 6 18.1042 6.09766 18.5195 6.29297C18.9349 6.48828 19.2965 6.75781 19.6045 7.10156C19.9124 7.44531 20.1595 7.84375 20.3457 8.29688C20.5319 8.75 20.625 9.23438 20.625 9.75C20.625 10.2969 20.5212 10.8164 20.3135 11.3086C20.1058 11.8008 19.8086 12.2305 19.4219 12.5977ZM15.125 9.75C15.125 10.0625 15.1787 10.3555 15.2861 10.6289C15.3936 10.9023 15.5404 11.1406 15.7266 11.3438C15.9128 11.5469 16.1312 11.707 16.3818 11.8242C16.6325 11.9414 16.901 12 17.1875 12C17.474 12 17.7425 11.9414 17.9932 11.8242C18.2438 11.707 18.4622 11.5469 18.6484 11.3438C18.8346 11.1406 18.9814 10.9023 19.0889 10.6289C19.1963 10.3555 19.25 10.0625 19.25 9.75C19.25 9.4375 19.1963 9.14453 19.0889 8.87109C18.9814 8.59766 18.8346 8.35938 18.6484 8.15625C18.4622 7.95312 18.2438 7.79297 17.9932 7.67578C17.7425 7.55859 17.474 7.5 17.1875 7.5C16.901 7.5 16.6325 7.55859 16.3818 7.67578C16.1312 7.79297 15.9128 7.95312 15.7266 8.15625C15.5404 8.35938 15.3936 8.59766 15.2861 8.87109C15.1787 9.14453 15.125 9.4375 15.125 9.75ZM12.375 1.5C11.7949 1.5 11.2256 1.56641 10.667 1.69922C10.1084 1.83203 9.56771 2.02344 9.04492 2.27344C8.52214 2.52344 8.028 2.82812 7.5625 3.1875C7.09701 3.54688 6.66732 3.96484 6.27344 4.44141L5.25293 3.43359C5.71126 2.88672 6.21256 2.40234 6.75684 1.98047C7.30111 1.55859 7.87402 1.19922 8.47559 0.902344C9.07715 0.605469 9.70736 0.382812 10.3662 0.234375C11.0251 0.0859375 11.6947 0.0078125 12.375 0C13.3561 0 14.3158 0.15625 15.2539 0.46875C16.1921 0.78125 17.0658 1.25391 17.875 1.88672V0H19.25V4.5H15.125V3H16.9404C16.2601 2.50781 15.5332 2.13672 14.7598 1.88672C13.9863 1.63672 13.1914 1.50781 12.375 1.5ZM9.625 22.5C10.2051 22.5 10.7744 22.4336 11.333 22.3008C11.8916 22.168 12.4323 21.9766 12.9551 21.7266C13.4779 21.4766 13.972 21.1719 14.4375 20.8125C14.903 20.4531 15.3327 20.0352 15.7266 19.5586L16.7471 20.5664C16.2887 21.1133 15.7874 21.5977 15.2432 22.0195C14.6989 22.4414 14.1224 22.8008 13.5137 23.0977C12.9049 23.3945 12.2747 23.6172 11.623 23.7656C10.9714 23.9141 10.3053 23.9922 9.625 24C8.64388 24 7.68424 23.8438 6.74609 23.5312C5.80794 23.2188 4.93424 22.7461 4.125 22.1133V24H2.75V19.5H6.875V21H5.05957C5.73991 21.4922 6.4668 21.8633 7.24023 22.1133C8.01367 22.3633 8.80859 22.4922 9.625 22.5Z" fill="#080E11"/>
</svg>
